HIERARCHY
ROOT hip
{
  OFFSET 0 0 0
  CHANNELS 6 Xposition Yposition Zposition Zrotation Yrotation Xrotation
  JOINT abdomen
  {
    OFFSET 0 20.6881 -0.73152
    CHANNELS 3 Zrotation Xrotation Yrotation
    JOINT chest
    {
      OFFSET 0 11.7043 -0.48768
      CHANNELS 3 Zrotation Xrotation Yrotation
      JOINT neck
      {
        OFFSET 0 22.1894 -2.19456
        CHANNELS 3 Zrotation Xrotation Yrotation
        JOINT head
        {
          OFFSET -0.24384 7.07133 1.2192
          CHANNELS 3 Zrotation Xrotation Yrotation
          JOINT leftEye
          {
            OFFSET 4.14528 8.04674 8.04672
            CHANNELS 3 Zrotation Xrotation Yrotation
            End Site
            {
              OFFSET 1 0 0
            }
          }
          JOINT rightEye
          {
            OFFSET -3.6576 8.04674 8.04672
            CHANNELS 3 Zrotation Xrotation Yrotation
            End Site
            {
              OFFSET 1 0 0
            }
          }
        }
      }
      JOINT rCollar
      {
        OFFSET -2.68224 19.2634 -4.8768
        CHANNELS 3 Zrotation Xrotation Yrotation
        JOINT rShldr
        {
          OFFSET -8.77824 -1.95073 1.46304
          CHANNELS 3 Zrotation Xrotation Yrotation
          JOINT rForeArm
          {
            OFFSET -28.1742 -1.7115 0.48768
            CHANNELS 3 Zrotation Xrotation Yrotation
            JOINT rHand
            {
              OFFSET -22.5879 0.773209 7.07136
              CHANNELS 3 Zrotation Xrotation Yrotation
              JOINT rThumb1
              {
                OFFSET -1.2192 -0.487915 3.41376
                CHANNELS 3 Zrotation Xrotation Yrotation
                JOINT rThumb2
                {
                  OFFSET -3.37035 -0.52449 3.41376
                  CHANNELS 3 Zrotation Xrotation Yrotation
                  End Site
                  {
                    OFFSET -1.78271 -1.18214 1.43049
                  }
                }
              }
              JOINT rIndex1
              {
                OFFSET -7.75947 0.938293 5.60832
                CHANNELS 3 Zrotation Xrotation Yrotation
                JOINT rIndex2
                {
                  OFFSET -2.54057 -0.884171 1.56538
                  CHANNELS 3 Zrotation Xrotation Yrotation
                  End Site
                  {
                    OFFSET -1.62519 -0.234802 1.16502
                  }
                }
              }
              JOINT rMid1
              {
                OFFSET -8.24714 1.18213 3.41376
                CHANNELS 3 Zrotation Xrotation Yrotation
                JOINT rMid2
                {
                  OFFSET -3.10165 -0.590103 1.0647
                  CHANNELS 3 Zrotation Xrotation Yrotation
                  End Site
                  {
                    OFFSET -2.48547 -0.328903 0.83742
                  }
                }
              }
              JOINT rRing1
              {
                OFFSET -8.82822 0.546677 1.51678
                CHANNELS 3 Zrotation Xrotation Yrotation
                JOINT rRing2
                {
                  OFFSET -2.60934 -0.819778 -0.0198488
                  CHANNELS 3 Zrotation Xrotation Yrotation
                  End Site
                  {
                    OFFSET -2.33842 -0.294052 0.168128
                  }
                }
              }
              JOINT rPinky1
              {
                OFFSET -8.27202 -0.0477905 -0.4584
                CHANNELS 3 Zrotation Xrotation Yrotation
                JOINT rPinky2
                {
                  OFFSET -1.82734 -0.647385 -0.700984
                  CHANNELS 3 Zrotation Xrotation Yrotation
                  End Site
                  {
                    OFFSET -1.69225 -0.51767 -0.607171
                  }
                }
              }
            }
          }
        }
      }
      JOINT lCollar
      {
        OFFSET 2.68224 19.2634 -4.8768
        CHANNELS 3 Zrotation Xrotation Yrotation
        JOINT lShldr
        {
          OFFSET 8.77824 -1.95073 1.46304
          CHANNELS 3 Zrotation Xrotation Yrotation
          JOINT lForeArm
          {
            OFFSET 28.1742 -1.7115 0.48768
            CHANNELS 3 Zrotation Xrotation Yrotation
            JOINT lHand
            {
              OFFSET 22.5879 0.773209 7.07136
              CHANNELS 3 Zrotation Xrotation Yrotation
              JOINT lThumb1
              {
                OFFSET 1.2192 -0.487915 3.41376
                CHANNELS 3 Zrotation Xrotation Yrotation
                JOINT lThumb2
                {
                  OFFSET 3.37035 -0.52449 3.41376
                  CHANNELS 3 Zrotation Xrotation Yrotation
                  End Site
                  {
                    OFFSET 1.78271 -1.18214 1.43049
                  }
                }
              }
              JOINT lIndex1
              {
                OFFSET 7.75947 0.938293 5.60832
                CHANNELS 3 Zrotation Xrotation Yrotation
                JOINT lIndex2
                {
                  OFFSET 2.54057 -0.884171 1.56538
                  CHANNELS 3 Zrotation Xrotation Yrotation
                  End Site
                  {
                    OFFSET 1.62519 -0.234802 1.16502
                  }
                }
              }
              JOINT lMid1
              {
                OFFSET 8.24714 1.18213 3.41376
                CHANNELS 3 Zrotation Xrotation Yrotation
                JOINT lMid2
                {
                  OFFSET 3.10165 -0.590103 1.0647
                  CHANNELS 3 Zrotation Xrotation Yrotation
                  End Site
                  {
                    OFFSET 2.48547 -0.328903 0.83742
                  }
                }
              }
              JOINT lRing1
              {
                OFFSET 8.82822 0.546677 1.51678
                CHANNELS 3 Zrotation Xrotation Yrotation
                JOINT lRing2
                {
                  OFFSET 2.60934 -0.819778 -0.0198488
                  CHANNELS 3 Zrotation Xrotation Yrotation
                  End Site
                  {
                    OFFSET 2.33842 -0.294052 0.168128
                  }
                }
              }
              JOINT lPinky1
              {
                OFFSET 8.27202 -0.0477905 -0.4584
                CHANNELS 3 Zrotation Xrotation Yrotation
                JOINT lPinky2
                {
                  OFFSET 1.82734 -0.647385 -0.700984
                  CHANNELS 3 Zrotation Xrotation Yrotation
                  End Site
                  {
                    OFFSET 1.69225 -0.51767 -0.607171
                  }
                }
              }
            }
          }
        }
      }
    }
  }
  JOINT rButtock
  {
    OFFSET -8.77824 4.35084 1.2192
    CHANNELS 3 Zrotation Xrotation Yrotation
    JOINT rThigh
    {
      OFFSET 0 -1.70687 -2.19456
      CHANNELS 3 Zrotation Xrotation Yrotation
      JOINT rShin
      {
        OFFSET 0 -36.8199 0.73152
        CHANNELS 3 Zrotation Xrotation Yrotation
        JOINT rFoot
        {
          OFFSET 0.73152 -45.1104 -5.12064
          CHANNELS 3 Zrotation Xrotation Yrotation
          End Site
          {
            OFFSET -1.1221 -3.69964 12.103
          }
        }
      }
    }
  }
  JOINT lButtock
  {
    OFFSET 8.77824 4.35084 1.2192
    CHANNELS 3 Zrotation Xrotation Yrotation
    JOINT lThigh
    {
      OFFSET 0 -1.70687 -2.19456
      CHANNELS 3 Zrotation Xrotation Yrotation
      JOINT lShin
      {
        OFFSET 0 -36.8199 0.73152
        CHANNELS 3 Zrotation Xrotation Yrotation
        JOINT lFoot
        {
          OFFSET -0.73152 -45.1104 -5.12064
          CHANNELS 3 Zrotation Xrotation Yrotation
          End Site
          {
            OFFSET 1.1221 -3.69964 12.103
          }
        }
      }
    }
  }
}
MOTION
Frames:	4
Frame Time:	0.00833333
-50.8616 -81.1643 14.166 0.0 0.0 0.0 0.984007 -0.00436266 0.0272421 0.271447 -0.00455891 0.0470276 2.62015e-14 -7.95139e-16 -2.98177e-16 7.89672e-14 3.18055e-15 -9.19379e-16 -0.0 0.0 0.0 -0.0 0.0 0.0 1.32183e-14 -6.60027e-18 4.96962e-17 2.78351e-13 9.31803e-17 -1.78906e-15 4.76313e-12 -1.42449e-12 -1.33583e-13 5.44418e-11 1.39895e-12 -5.66139e-13 1.28429e-10 -5.95374e-14 -1.51076e-12 2.21785e-10 -1.04958e-13 -2.62157e-12 1.28432e-10 -5.80451e-14 -1.52985e-12 7.73091 5.47488 0.417314 1.28429e-10 -5.99336e-14 -1.51076e-12 2.90554 0.965183 0.102902 1.28442e-10 -5.94366e-14 -1.51553e-12 10.2786 0.731801 0.0259123 1.28427e-10 -5.725e-14 -1.50758e-12 2.22167 -0.733487 -0.20892 1.31216e-14 -5.82377e-18 -3.47873e-16 2.75624e-13 -1.30452e-16 -3.57812e-15 4.75294e-12 1.41793e-12 -9.54166e-14 5.44512e-11 -1.45043e-12 -5.85222e-13 1.28433e-10 -7.17676e-14 -1.50758e-12 2.21804e-10 -1.27222e-13 -2.61601e-12 1.2843e-10 -7.07673e-14 -1.50122e-12 -7.73091 5.47488 -0.417314 1.28433e-10 -7.16619e-14 -1.51076e-12 -2.90554 0.965183 -0.102902 1.28431e-10 -7.17613e-14 -1.51076e-12 -10.2786 0.731801 -0.0259123 1.28442e-10 -6.91771e-14 -1.52031e-12 -2.22167 -0.733487 0.20892 -2.03217e-16 0.0 -3.88251e-19 1.25358 -5.4523 -0.109379 3.59863e-05 4.32113 0.0235777 -0.515691 1.13003 0.0818637 2.03217e-16 0.0 3.88251e-19 0.254407 -1.91924 0.0128439 0.00924912 -2.07856 0.076379 0.491253 3.99656 -0.137206
-143.82 16.5077 0.114833 33.0101 84.5104 134.331 0.879137 -5.4602 1.0276 0.0452714 1.79501 0.386392 4.79513 2.59076 5.84388 -7.60116 1.54474 10.8708 -0.0 0.0 0.0 -0.0 0.0 0.0 -1.771e-14 -9.86965e-14 -2.44528e-14 -1.94133 -10.2117 1.89441 1.71178 15.4601 -41.6029 0.0968002 -6.91184 -0.94607 1.52496e-10 -5.77884e-10 -7.44809e-10 2.78866e-10 -1.02097e-09 -1.28828e-09 1.52497e-10 -5.77875e-10 -7.44827e-10 7.73091 5.47488 0.417314 1.52496e-10 -5.77885e-10 -7.44809e-10 2.90554 0.965183 0.102902 1.52508e-10 -5.77884e-10 -7.44813e-10 10.2786 0.731801 0.0259123 1.52492e-10 -5.77883e-10 -7.44807e-10 2.22167 -0.733487 -0.20892 -1.77816e-14 -9.86933e-14 -2.47654e-14 0.294179 -10.4752 -7.86741 -0.585625 16.6179 40.5895 -0.0499193 -4.96479 0.688362 3.34452e-10 6.91197e-11 1.08381e-09 5.62559e-10 9.58257e-11 1.87905e-09 3.34448e-10 6.91197e-11 1.08382e-09 -7.73091 5.47488 -0.417314 3.34452e-10 6.91182e-11 1.08381e-09 -2.90554 0.965183 -0.102902 3.34451e-10 6.91178e-11 1.08381e-09 -10.2786 0.731801 -0.0259123 3.34462e-10 6.91216e-11 1.0838e-09 -2.22167 -0.733487 0.20892 -2.03217e-16 0.0 -3.88251e-19 -3.63007 -10.2899 -5.15888 0.167211 10.8117 0.457479 1.26572 -1.71538 -6.63327 2.03217e-16 0.0 3.88251e-19 3.75189 -7.11926 2.95773 -0.290507 8.47158 -0.447601 -1.34732 -0.725975 3.97867
-143.816 16.4186 0.11994 35.6735 84.8186 136.74 0.976128 -11.2068 2.11612 -0.215488 3.69065 0.746437 9.29377 5.23527 12.06 -16.256 3.00177 22.3865 -0.0 0.0 0.0 -0.0 0.0 0.0 -5.06224e-14 -1.99983e-13 -4.96527e-14 -3.20502 -20.9632 4.11307 17.5941 5.41867 -83.9005 -0.0560643 -14.1984 -1.99116 1.76863e-10 -1.21659e-09 -1.5787e-09 3.38447e-10 -2.15003e-09 -2.73075e-09 1.76863e-10 -1.21658e-09 -1.57872e-09 7.73091 5.47488 0.417314 1.76863e-10 -1.21659e-09 -1.5787e-09 2.90554 0.965183 0.102902 1.76875e-10 -1.21659e-09 -1.5787e-09 10.2786 0.731801 0.0259123 1.76858e-10 -1.21659e-09 -1.5787e-09 2.22167 -0.733487 -0.20892 -5.06648e-14 -1.99977e-13 -4.98732e-14 -2.67677 -20.881 -17.0615 -16.5215 7.39934 82.3086 0.0291401 -10.2376 1.43722 5.53472e-10 1.10122e-10 2.3165e-09 9.23732e-10 1.40052e-10 4.01595e-09 5.53467e-10 1.10121e-10 2.31652e-09 -7.73091 5.47488 -0.417314 5.53472e-10 1.10119e-10 2.3165e-09 -2.90554 0.965183 -0.102902 5.53472e-10 1.10118e-10 2.3165e-09 -10.2786 0.731801 -0.0259123 5.53484e-10 1.10123e-10 2.3165e-09 -2.22167 -0.733487 0.20892 -2.03217e-16 0.0 -3.88251e-19 -9.72137 -15.203 -10.6921 0.231368 17.6754 0.942003 2.42821 -4.6098 -13.7428 2.03217e-16 0.0 3.88251e-19 8.03525 -12.5389 6.16913 -0.3864 19.617 -1.05233 -2.5532 -5.65946 8.36674
-143.82 16.3692 0.115591 38.4488 85.0617 139.359 1.26126 -16.3512 3.14152 -0.471279 5.39333 1.06929 12.8161 7.44857 17.6676 -24.4601 3.9741 32.6887 -0.0 0.0 0.0 -0.0 0.0 0.0 -7.95665e-14 -2.96076e-13 -7.34579e-14 -3.52627 -30.4898 6.49432 22.6155 -25.3664 -105.305 -0.434289 -20.7121 -3.01244 2.00629e-10 -1.73353e-09 -2.23141e-09 3.9303e-10 -3.0627e-09 -3.8596e-09 2.00628e-10 -1.73351e-09 -2.23142e-09 7.73091 5.47488 0.417314 2.00629e-10 -1.73353e-09 -2.23141e-09 2.90554 0.965183 0.102902 2.0064e-10 -1.73353e-09 -2.23141e-09 10.2786 0.731801 0.0259123 2.00623e-10 -1.73353e-09 -2.23141e-09 2.22167 -0.733487 -0.20892 -7.9588e-14 -2.96068e-13 -7.36004e-14 -8.4871 -28.8943 -26.7484 -22.416 -23.0224 101.765 0.218619 -14.8856 2.12881 7.46489e-10 2.07503e-10 3.25445e-09 1.24407e-09 2.87731e-10 5.64239e-09 7.46484e-10 2.07501e-10 3.25448e-09 -7.73091 5.47488 -0.417314 7.46488e-10 2.07498e-10 3.25445e-09 -2.90554 0.965183 -0.102902 7.4649e-10 2.07497e-10 3.25446e-09 -10.2786 0.731801 -0.0259123 7.46502e-10 2.07503e-10 3.25445e-09 -2.22167 -0.733487 0.20892 -2.03217e-16 0.0 -3.88251e-19 -16.0566 -19.3745 -15.9335 0.181862 23.7873 1.42186 2.85936 -6.98737 -20.2111 2.03217e-16 0.0 3.88251e-19 12.4101 -17.3354 9.20033 -0.242176 29.5618 -1.70248 -2.98291 -9.94381 12.3979
